<?xml version="1.0" encoding="UTF-8"?>
<svg width="1280px" height="640px" viewBox="0 0 1280 640" version="1.1" xmlns="http://www.w3.org/2000/svg" xmlns:xlink="http://www.w3.org/1999/xlink">
    <!-- Generator: Sketch 51.3 (57544) - http://www.bohemiancoding.com/sketch -->
    <title>Artboard</title>
    <desc>Created with Sketch.</desc>
    <defs></defs>
    <g id="Artboard" stroke="none" stroke-width="1" fill="none" fill-rule="evenodd">
        <g id="Group" transform="translate(-523.000000, 24.000000)">
            <g id="Matroyshka_Icon" transform="translate(1121.402763, 14.495218)">
                <path d="M155.418531,374.425582 L57.1775849,374.425582 C26.0940096,357.060987 5.06181228,323.726485 5.06181228,285.455927 C5.06181228,252.903283 20.2787613,223.921912 43.9549556,205.302154 C33.4612937,191.816027 27.207241,174.837961 27.207241,156.392129 C27.207241,112.500523 62.6174059,76.919347 106.298058,76.919347 C149.97871,76.919347 185.388875,112.500523 185.388875,156.392129 C185.388875,174.837961 179.134822,191.816027 168.64116,205.302154 C192.317355,223.921912 207.534304,252.903283 207.534304,285.455927 C207.534304,323.726485 186.502106,357.060987 155.418531,374.425582 Z" id="Combined-Shape" stroke="#23292D" stroke-width="9.53545624" fill="#25C4F1"></path>
                <g id="Git/Icon-Black" stroke-width="1" transform="translate(48.087217, 230.758041)" fill="#23292D">
                    <path d="M114.7748,53.5278552 L63.6969793,2.21652517 C60.7580922,-0.738841722 55.9876116,-0.738841722 53.045028,2.21652517 L42.4392825,12.8730946 L55.8923252,26.3892971 C59.0198342,25.3283856 62.6045741,26.0397038 65.0963955,28.5437191 C67.6011545,31.0633324 68.304097,34.6956442 67.2216518,37.8483587 L80.1879946,50.8755764 C83.3249501,49.7894935 86.9442929,50.4911765 89.4491546,53.0122547 C92.951135,56.5296447 92.951135,62.2292071 89.4491546,65.7475256 C85.9466608,69.2669789 80.2737318,69.2669789 76.7692871,65.7475256 C74.1360763,63.0998891 73.4847814,59.2127687 74.8184829,55.9531789 L62.7259411,43.8038646 L62.7249143,75.7746043 C63.5786927,76.1992372 64.3844172,76.7659851 65.0958821,77.4776954 C68.5968357,80.9946727 68.5968357,86.6932036 65.0958821,90.2160612 C61.5939017,93.7329354 55.9184057,93.7329354 52.4201218,90.2160612 C48.9186548,86.6935131 48.9186548,80.9949822 52.4201218,77.4776954 C53.2854516,76.6098503 54.2867289,75.9529703 55.3551071,75.5126776 L55.3551071,43.2448331 C54.2862155,42.8063973 53.286119,42.1544174 52.4195057,41.279609 C49.7672992,38.6170141 49.1285313,34.7061666 50.488724,31.4339912 L37.2266648,18.1076056 L2.20686066,53.2907903 C-0.735620219,56.2484268 -0.735620219,61.041304 2.20686066,63.9968772 L53.2816012,115.30831 C56.2221311,118.263677 60.9909688,118.263677 63.935606,115.30831 L114.774184,64.2393064 C117.715741,61.2824953 117.715741,56.4881738 114.774184,53.5321879" id="Shape" fill-rule="nonzero"></path>
                </g>
                <ellipse id="Oval-2" stroke="#23292D" stroke-width="9.53545624" fill="#FFFFFF" cx="106.298058" cy="146.846026" rx="44.2908575" ry="44.4987958"></ellipse>
                <g id="Group" stroke-width="1" transform="translate(116.421683, 137.310570)" stroke="#23292D" stroke-linecap="round">
                    <ellipse id="Oval-4" stroke-width="9.53545624" cx="9.49089803" cy="9.53545624" rx="9.49089803" ry="9.53545624"></ellipse>
                    <path d="M19.2981593,9.69438051 L33.2181431,9.69438051" id="Line" stroke-width="9.53545624"></path>
                </g>
                <g id="Group-Copy-3" stroke-width="1" transform="translate(99.997133, 177.385950) rotate(-255.000000) translate(-99.997133, -177.385950) translate(87.975329, 167.850494)" stroke="#23292D">
                    <path d="M0,19.0709125 C5.24167825,19.0709125 9.49089803,14.8017433 9.49089803,9.53545624 C9.49089803,4.26916918 5.24167825,0 0,0" id="Oval-4" stroke-width="9.53545624" stroke-linejoin="round"></path>
                    <path d="M9.8072613,9.69438051 L23.7272451,9.69438051" id="Line" stroke-width="9.53545624" stroke-linecap="round"></path>
                </g>
                <g id="Group-Copy-2" stroke-width="1" transform="translate(106.614421, 41.320310) rotate(-270.000000) translate(-106.614421, -41.320310) translate(70.865372, 6.992668)" stroke="#23292D">
                    <ellipse id="Oval-4" stroke-width="9.53545624" cx="47.4544902" cy="34.9633395" rx="9.49089803" ry="9.53545624"></ellipse>
                    <path d="M27.3212551,14.7355822 C22.1687109,19.9123168 18.9817961,27.063909 18.9817961,34.9633395 C18.9817961,42.8627701 22.1687109,50.0143623 27.3212551,55.1910969" id="Oval-4-Copy" stroke-width="9.53545624"></path>
                    <path d="M13.8990984,0.614713619 C5.31152473,9.2426045 0,21.1619248 0,34.3276425 C0,47.4933601 5.31152473,59.4126804 13.8990984,68.0405713" id="Oval-4-Copy-2" stroke-width="9.53545624"></path>
                    <path d="M57.2617515,35.1222638 L71.1817352,35.1222638" id="Line" stroke-width="9.53545624" stroke-linecap="round"></path>
                </g>
                <g id="Group-Copy" stroke-width="1" transform="translate(89.530805, 130.000053) rotate(-90.000000) translate(-89.530805, -130.000053) translate(69.916282, 120.464597)" stroke="#23292D">
                    <ellipse id="Oval-4" stroke-width="9.53545624" fill="#25C4F1" cx="9.49089803" cy="9.53545624" rx="9.49089803" ry="9.53545624"></ellipse>
                    <polyline id="Line" stroke-width="9.53545624" stroke-linecap="round" transform="translate(29.293615, 4.999537) scale(1, -1) translate(-29.293615, -4.999537) " points="19.6145226 0.635697083 30.9331715 0.635697083 38.9727072 9.36337776"></polyline>
                </g>
            </g>
            <g id="Group-Copy" fill="#23292D">
                <path d="M1348.7759,370.063496 L1368.78919,372.843119 C1373.60722,372.843119 1377.8075,370.742981 1381.39014,366.542641 C1384.97279,362.342301 1387.62884,357.091955 1389.3584,350.791445 C1392.69396,338.684583 1394.36172,327.967701 1394.36172,318.640476 C1394.36172,309.31325 1392.8175,300.078818 1389.72901,290.936902 C1386.64053,281.794986 1382.87263,273.301779 1378.42521,265.457027 C1373.97779,257.612275 1369.46867,249.613218 1364.89772,241.459617 C1354.27333,222.311009 1348.96121,203.409764 1348.96121,184.755313 C1348.96121,173.389688 1350.87604,163.321378 1354.70577,154.55008 C1361.87105,138.242878 1371.38344,130.0894 1383.24323,130.0894 C1387.69064,130.0894 1391.92181,131.510081 1395.93684,134.351488 C1399.95187,137.192894 1401.95935,140.281333 1401.95935,143.616897 C1401.95935,149.423249 1398.87091,152.326382 1392.69394,152.326382 C1389.97608,152.326382 1387.32002,151.585156 1384.72569,150.102683 C1376.69563,150.473302 1371.25998,159.429774 1368.41857,176.97237 C1367.80087,180.802091 1367.49203,185.280328 1367.49203,190.407213 C1367.49203,195.534098 1368.60387,201.865398 1370.82758,209.401302 C1373.05129,216.937206 1375.86177,223.639118 1379.2591,229.50724 C1382.65643,235.375361 1386.30079,241.861083 1390.19228,248.964599 C1394.08377,256.068115 1397.75902,262.955333 1401.21812,269.626461 C1409.0011,285.068887 1412.89253,302.734757 1412.89253,322.624601 C1412.89253,338.437645 1409.74233,353.076846 1403.44182,366.542641 C1400.10625,373.460848 1395.38094,379.112691 1389.26574,383.49834 C1383.15054,387.883988 1376.07802,390.138549 1368.04795,390.262088 L1368.04795,391.188629 C1363.35346,390.570932 1359.09141,388.995828 1355.26169,386.46327 C1351.43197,383.930713 1349.27006,380.626083 1348.7759,376.549283 L1348.7759,370.063496 Z M1468.11437,157.515011 L1466.63191,252.207492 C1471.07933,253.442886 1477.75035,254.060574 1486.64519,254.060574 L1501.09923,254.060574 L1501.09923,246.092322 C1501.09923,234.479618 1500.23447,217.029938 1498.50491,193.74276 C1496.77536,170.455582 1495.9106,153.005903 1495.9106,141.393199 C1495.9106,138.551792 1496.99155,136.173694 1499.15349,134.258834 C1501.31543,132.343973 1503.23027,131.386557 1504.89805,131.386557 C1506.56583,131.386557 1508.0174,131.293904 1509.25279,131.108595 C1510.48818,130.923285 1511.50737,130.861517 1512.31037,130.923286 C1513.11338,130.985056 1514.00903,131.263016 1514.99734,131.757173 C1516.85043,132.621949 1517.77697,135.463313 1517.77697,140.28135 C1517.77697,166.842322 1518.95057,206.621414 1521.29782,259.619819 C1523.64507,312.618225 1524.81868,352.397317 1524.81868,378.958289 C1524.81868,381.181998 1523.86126,382.911524 1521.9464,384.146918 C1520.03154,385.382312 1517.59167,386 1514.62673,386 C1511.66178,386 1508.88219,385.22789 1506.28786,383.683648 C1503.69353,382.139405 1502.33462,380.070151 1502.21108,377.475824 C1500.85215,352.273785 1500.17269,321.265859 1500.17269,284.451116 L1500.17269,282.96865 L1499.98738,272.035468 L1499.80207,268.514612 L1499.80207,268.143996 C1497.82544,268.638153 1494.98408,268.885228 1491.2779,268.885228 L1467.74376,265.364373 L1466.63191,307.244022 L1466.63191,308.911796 L1469.78215,371.360654 C1469.78215,375.066836 1468.8865,378.278812 1467.09518,380.996679 C1465.30386,383.714546 1462.67868,385.073459 1459.21958,385.073459 C1454.15446,385.073459 1450.66453,380.471685 1448.74967,371.267999 C1446.83481,362.064314 1445.87739,349.494368 1445.87739,333.557784 L1446.98924,275.741631 L1447.17455,254.060574 L1447.91578,231.823592 L1445.32147,146.211211 C1445.32147,143.246266 1446.37154,140.621093 1448.47171,138.335614 C1450.57188,136.050135 1453.1044,134.907412 1456.06934,134.907412 C1464.0994,134.907412 1468.11437,142.443203 1468.11437,157.515011 Z M1590.04716,147.323061 L1586.89692,216.443013 L1586.89692,236.270988 C1587.63815,234.912055 1592.27081,224.905513 1600.79503,206.251063 C1622.16735,160.047325 1635.5094,136.945802 1640.8216,136.945802 C1644.52778,136.945802 1647.89418,137.810565 1650.9209,139.540117 C1653.94761,141.269669 1655.46095,143.802188 1655.46095,147.137752 C1655.46095,147.384831 1649.03699,158.101714 1636.18889,179.288722 C1623.3408,200.47573 1616.17562,212.613295 1614.69315,215.70178 L1613.95191,238.309378 C1613.95191,249.180846 1618.30661,269.502774 1627.01614,299.27577 C1635.72567,329.048767 1642.9835,348.753007 1648.78985,358.389081 C1649.53109,359.500935 1651.16796,361.78638 1653.70052,365.245484 C1656.23308,368.704587 1658.08614,371.731257 1659.25976,374.325584 C1660.43339,376.919912 1661.02019,379.637738 1661.02019,382.479145 C1661.02019,385.320551 1659.93924,387.698649 1657.7773,389.61351 C1655.61536,391.52837 1653.11372,392.485786 1650.27232,392.485786 C1644.34243,392.485786 1638.16555,386.216256 1631.7415,373.677006 C1625.31745,361.137756 1619.57295,345.788215 1614.50784,327.627922 C1605.98362,296.619531 1599.74497,269.626576 1595.79171,246.648247 C1591.59137,250.972126 1588.34851,256.747506 1586.06303,263.974562 C1583.77755,271.201617 1582.63483,276.174003 1582.63483,278.89187 L1582.63483,382.849761 C1582.63483,388.779652 1579.85524,391.744554 1574.29596,391.744554 C1570.46624,391.744554 1567.40869,390.6636 1565.12321,388.50166 C1562.83773,386.339721 1561.69501,383.405704 1561.69501,379.699522 L1561.69501,264.437832 C1561.69501,250.724958 1562.8995,230.248609 1565.30851,203.00817 C1567.71753,175.76773 1568.92202,155.35315 1568.92202,141.763815 C1571.14573,136.945778 1574.35771,134.536796 1578.55805,134.536796 C1586.21749,134.536796 1590.04716,138.798842 1590.04716,147.323061 Z M1778.69089,324.662991 L1776.6525,332.260627 C1776.6525,335.349112 1777.76434,342.884903 1779.98804,354.868225 C1782.21175,366.851548 1783.32359,374.696182 1783.32359,378.402365 L1783.32359,378.772981 C1783.32359,384.455794 1781.40876,388.038383 1777.57904,389.520855 C1772.26684,389.520855 1768.12834,388.656093 1765.16339,386.926541 C1762.19844,385.196989 1760.71599,380.84229 1760.71599,373.862314 C1760.71599,366.882338 1758.86293,352.521097 1755.15675,330.778162 L1743.48233,329.666312 L1730.88138,329.666312 C1728.03997,328.430918 1723.0367,327.813231 1715.87141,327.813231 C1715.87141,328.060309 1715.71699,329.697182 1715.40814,332.723897 C1715.09929,335.750613 1714.85222,338.19048 1714.66691,340.043571 C1714.4816,341.896662 1714.17276,344.645372 1713.74037,348.289785 C1713.30798,351.934197 1712.84472,355.022636 1712.35056,357.555194 C1711.8564,360.087752 1711.23871,363.052653 1710.49748,366.449987 C1709.75624,369.84732 1708.92236,372.688684 1707.99582,374.974163 C1707.06927,377.259642 1706.05009,379.452434 1704.93823,381.552604 C1702.71452,385.876483 1699.9967,388.03839 1696.78467,388.03839 C1693.57265,388.03839 1690.7004,387.080974 1688.16784,385.166113 C1685.63528,383.251252 1684.36902,380.811386 1684.36902,377.84644 C1691.04015,352.273783 1696.75376,325.466134 1701.51003,297.422689 C1706.2663,269.379243 1709.10766,252.732558 1710.03421,247.482133 C1710.96075,242.231709 1713.12266,232.101629 1716.51999,217.091591 C1719.91733,202.081554 1721.9557,192.044127 1722.63516,186.979012 C1723.31463,181.913896 1723.9632,175.366406 1724.5809,167.336344 C1725.69275,149.793749 1727.9782,138.490063 1731.4373,133.424947 L1744.22357,133.424947 C1752.87132,133.424947 1757.19514,136.019235 1757.19514,141.207891 C1757.19514,190.005956 1761.95133,238.494446 1771.46387,286.674814 C1771.95803,289.51622 1772.88456,293.469422 1774.24349,298.534538 C1777.20844,309.529545 1778.69089,318.238942 1778.69089,324.662991 Z M1752.74774,316.509431 C1752.00651,312.803249 1751.63589,306.811678 1751.63589,298.534538 C1751.63589,290.257398 1751.11086,280.219971 1750.06077,268.421958 C1749.01069,256.623945 1747.49735,242.942161 1745.52072,227.376196 C1743.54409,211.81023 1742.18518,200.568313 1741.44394,193.650106 C1739.96147,200.815392 1737.05834,212.798534 1732.73446,229.599894 C1723.96316,264.561546 1719.45404,291.492732 1719.20696,310.394261 C1723.53084,313.235668 1734.71099,315.274037 1752.74774,316.509431 Z" id="shka"></path>
                <path d="M603.6517,307.42933 C620.700138,210.450897 631.20083,142.937624 635.154091,104.887487 L635.154091,102.663789 C635.771788,99.3282246 637.408661,96.7030516 640.064758,94.7881908 C642.720855,92.87333 645.376913,91.9159139 648.03301,91.9159139 C650.689107,91.9159139 652.696593,92.4100641 654.055526,93.3983794 C657.020472,95.4985493 658.502922,98.2163755 658.502922,101.551939 C658.502922,131.572015 659.305917,176.539684 660.911929,236.456296 C662.517941,296.372909 663.320935,341.340578 663.320935,371.360654 C663.320935,378.896557 660.788415,384.82636 655.7233,389.150239 C653.005433,391.00333 651.337676,391.373943 650.719979,390.262088 C645.654863,391.621022 642.813499,390.570952 642.195802,387.111849 C641.948724,385.629376 641.825186,383.776313 641.825186,381.552604 L642.010494,375.437434 C641.516337,356.165286 641.269261,341.093705 641.269261,330.222237 C641.269261,319.350769 641.361915,304.340957 641.547224,285.192349 C641.732533,266.043741 641.701648,229.7237 641.45457,176.231137 C640.095636,184.137659 637.223388,199.054819 632.837739,220.983063 C628.45209,242.911308 625.456305,258.847652 623.850292,268.792574 C622.24428,278.737497 620.947136,287.045397 619.95882,293.716525 C618.970505,300.387653 618.013089,306.34834 617.086544,311.598765 C616.159998,316.849189 615.017276,322.192189 613.658342,327.627922 C610.816936,339.117087 606.740197,344.861583 601.428002,344.861583 C593.52148,344.861583 589.568278,333.063747 589.568278,309.467721 C588.085806,297.360859 584.009066,273.116614 577.337938,236.734259 C570.66681,200.351904 566.219459,175.366434 563.995749,161.777099 C563.74867,185.249586 563.625133,202.853687 563.625133,214.589931 L566.775372,372.472503 C566.775372,377.908237 564.86054,382.664432 561.030818,386.741233 C554.730309,386.741233 550.468263,384.641094 548.244554,380.440755 C546.020844,376.240415 544.909006,370.557687 544.909006,363.392402 L546.206164,300.017003 L544.909006,153.067614 C544.909006,136.636873 545.094313,120.268147 545.464931,103.960946 L556.027497,98.031084 C563.069243,98.7723204 570.913878,121.00908 579.561637,164.74203 C586.479843,199.333063 592.131686,231.205752 596.517335,260.361052 C600.902984,289.516352 603.281082,305.205621 603.6517,307.42933 Z M789.515808,324.662991 L787.477418,332.260627 C787.477418,335.349112 788.589256,342.884903 790.812965,354.868225 C793.036674,366.851548 794.148512,374.696182 794.148512,378.402365 L794.148512,378.772981 C794.148512,384.455794 792.23368,388.038383 788.403959,389.520855 C783.091764,389.520855 778.953256,388.656093 775.98831,386.926541 C773.023365,385.196989 771.540914,380.84229 771.540914,373.862314 C771.540914,366.882338 769.687851,352.521097 765.981668,330.778162 L754.307253,329.666312 L741.706296,329.666312 C738.86489,328.430918 733.861619,327.813231 726.696334,327.813231 C726.696334,328.060309 726.541912,329.697182 726.233063,332.723897 C725.924215,335.750613 725.67714,338.19048 725.49183,340.043571 C725.306521,341.896662 724.997678,344.645372 724.56529,348.289785 C724.132902,351.934197 723.669636,355.022636 723.175478,357.555194 C722.681321,360.087752 722.063633,363.052653 721.322396,366.449987 C720.58116,369.84732 719.747281,372.688684 718.820736,374.974163 C717.89419,377.259642 716.875006,379.452434 715.763151,381.552604 C713.539442,385.876483 710.821615,388.03839 707.609591,388.03839 C704.397566,388.03839 701.525318,387.080974 698.99276,385.166113 C696.460203,383.251252 695.193943,380.811386 695.193943,377.84644 C701.865071,352.273783 707.578682,325.466134 712.33495,297.422689 C717.091217,269.379243 719.93258,252.732558 720.859126,247.482133 C721.785671,242.231709 723.947579,232.101629 727.344912,217.091591 C730.742246,202.081554 732.780616,192.044127 733.460082,186.979012 C734.139549,181.913896 734.788121,175.366406 735.405818,167.336344 C736.517673,149.793749 738.803118,138.490063 742.262221,133.424947 L755.048486,133.424947 C763.696244,133.424947 768.020058,136.019235 768.020058,141.207891 C768.020058,190.005956 772.776254,238.494446 782.288789,286.674814 C782.782946,289.51622 783.709478,293.469422 785.068411,298.534538 C788.033357,309.529545 789.515808,318.238942 789.515808,324.662991 Z M763.572662,316.509431 C762.831426,312.803249 762.460813,306.811678 762.460813,298.534538 C762.460813,290.257398 761.935778,280.219971 760.885693,268.421958 C759.835608,256.623945 758.322273,242.942161 756.345643,227.376196 C754.369012,211.81023 753.010099,200.568313 752.268863,193.650106 C750.78639,200.815392 747.883258,212.798534 743.559378,229.599894 C734.78808,264.561546 730.27896,291.492732 730.031881,310.394261 C734.35576,313.235668 745.535909,315.274037 763.572662,316.509431 Z M860.118225,350.791445 L860.859458,337.819872 C859.871143,334.607848 857.832773,306.039789 854.744288,252.114838 C851.655803,198.189887 849.988046,165.298014 849.740967,153.438231 C835.163317,153.067612 826.145076,151.739584 822.685972,149.454105 C819.226869,147.168626 817.497343,144.790528 817.497343,142.31974 C817.497343,139.848952 818.856256,137.841466 821.574123,136.297224 C824.29199,134.752981 826.948048,133.980871 829.542375,133.980871 L881.05805,137.501727 L887.17322,137.316419 C895.079742,137.316419 899.032944,140.343089 899.032944,146.39652 C899.032944,149.485005 897.735799,151.98664 895.141472,153.901501 C892.547144,155.816362 889.644012,156.773778 886.431987,156.773778 L869.013018,154.179463 L868.271785,158.070935 C868.271785,182.03758 870.371924,217.925239 874.572264,265.734989 C878.772603,313.54474 880.872742,349.494168 880.872742,373.584352 C880.872742,376.672837 879.730019,379.328894 877.44454,381.552604 C875.159061,383.776313 872.47212,384.888151 869.383634,384.888151 L860.859458,384.888151 L860.118225,350.791445 Z M947.954304,273.703241 C946.224752,280.744987 945.359989,287.261593 945.359989,293.253255 C945.359989,299.244916 946.132099,312.031052 947.676342,331.612048 C949.220584,351.193044 949.992694,363.824759 949.992694,369.507572 C949.992694,375.190384 948.973509,379.514199 946.935109,382.479145 C944.896709,385.44409 942.58038,386.926541 939.986052,386.926541 C936.27987,386.926541 933.932656,384.394021 932.944341,379.328905 C933.19142,369.939911 933.314957,358.420034 933.314957,344.768929 C933.314957,331.117825 932.234004,301.129084 930.072064,254.801807 C927.910125,208.474529 926.829171,173.884014 926.829171,151.029224 C926.829171,139.045902 931.029448,133.05433 939.430128,133.05433 C952.648844,133.05433 963.767224,136.513382 972.7856,143.431589 C981.803977,150.349795 986.313098,160.2328 986.313098,173.080898 C986.313098,190.376415 984.954185,203.842008 982.236318,213.478082 C979.518451,223.114156 974.391642,235.159067 966.855739,249.613177 C968.214672,255.666608 970.623654,267.773289 974.082758,285.933581 C981.371583,325.219112 989.58683,353.570981 998.728746,370.990037 C1001.32307,375.931613 1002.62022,379.792162 1002.62022,382.571799 C1002.62022,385.351435 1001.84811,387.698649 1000.30387,389.61351 C998.759623,391.52837 996.690369,392.485786 994.096041,392.485786 C985.818901,392.485786 978.221342,378.711349 971.303135,351.162062 C968.338189,339.178739 965.682132,327.072059 963.334883,314.841658 C956.663755,281.362479 952.40171,262.523002 950.548618,258.322662 C950.548618,261.534687 949.683856,266.661495 947.954304,273.703241 Z M947.398379,147.137752 L946.101222,152.51169 C946.101222,162.889 946.348297,177.867928 946.842455,197.448924 C947.336612,217.02992 947.583688,231.267623 947.583688,240.16246 C953.513579,237.073975 958.300659,229.01315 961.945072,215.979742 C965.589484,202.946335 967.411663,192.970678 967.411663,186.052471 C967.411663,179.134264 967.226357,174.03834 966.855739,170.764546 C966.48512,167.490751 965.682126,163.877278 964.446732,159.924017 C962.099483,151.646877 956.416756,147.384831 947.398379,147.137752 Z M1084.15582,365.801408 C1084.15582,378.155349 1082.48806,385.876446 1079.1525,388.964931 C1077.42295,390.447404 1074.736,391.188629 1071.09159,391.188629 C1067.44718,391.188629 1064.38962,388.409034 1061.91884,382.849761 C1064.76024,377.290488 1066.18092,355.856722 1066.18092,318.547821 C1066.18092,311.506075 1065.68677,301.592187 1064.69846,288.805858 C1063.71014,276.01953 1063.15422,267.402785 1063.03069,262.955367 C1058.08911,254.431148 1050.46067,234.819561 1040.14512,204.120019 C1029.82958,173.420476 1024.67189,154.488346 1024.67189,147.323061 L1024.67189,145.284671 L1033.19607,138.984192 C1040.97905,139.231271 1050.24437,158.811973 1060.9923,197.726886 C1065.68679,214.775324 1068.03401,223.361184 1068.03401,223.484724 C1069.02232,220.766857 1070.99892,211.316234 1073.96387,195.132572 C1081.49977,154.117489 1089.40618,133.610255 1097.68332,133.610255 C1100.03056,133.610255 1102.16159,134.35148 1104.07645,135.833953 C1105.99131,137.316426 1106.94872,139.231258 1106.94872,141.578507 C1106.94872,157.144472 1103.14995,175.335377 1095.55227,196.151767 C1087.9546,216.968157 1084.15582,235.406136 1084.15582,251.466259 L1084.15582,365.801408 Z" id="Matry"></path>
            </g>
        </g>
        <path d="M73,503.757812 L71.734375,513.8125 C71.734375,518.687524 72.3788998,527.617123 73.6679688,540.601562 C74.9570377,553.586002 76.2109314,560.968741 77.4296875,562.75 C79.5859483,565.890641 82.8906027,567.460938 87.34375,567.460938 C91.7968973,567.460938 95.1953008,566.078139 97.5390625,563.3125 C99.1796957,563.3125 100.703118,563.078127 102.109375,562.609375 L102.109375,564.507812 C102.109375,567.414077 101.265633,569.781241 99.578125,571.609375 C96.8124862,574.750016 92.4062802,576.320312 86.359375,576.320312 C83.1249838,576.320312 79.9375157,575.23048 76.796875,573.050781 C73.6562343,570.871083 71.2656332,568.046892 69.625,564.578125 C67.9843668,561.109358 66.6953172,552.179759 65.7578125,537.789062 C64.8203078,523.398366 64.3515625,512.312539 64.3515625,504.53125 C64.3515625,496.749961 64.6796842,491.171892 65.3359375,487.796875 C65.0546861,486.249992 64.9140625,484.750007 64.9140625,483.296875 C64.9140625,477.390595 67.1171655,472.691424 71.5234375,469.199219 C75.9297095,465.707014 81.3671552,463.960938 87.8359375,463.960938 C90.132824,463.960938 92.3828015,464.605462 94.5859375,465.894531 C96.7890735,467.1836 97.890625,468.882802 97.890625,470.992188 C97.890625,472.023443 97.4921915,472.82031 96.6953125,473.382812 C95.8984335,473.945315 94.7851634,474.226562 93.3554688,474.226562 C91.9257741,474.226562 90.8593785,473.640631 90.15625,472.46875 L90.15625,472.75 L87.90625,472.75 L87.90625,472.1875 C80.499963,472.1875 75.8593844,475.328094 73.984375,481.609375 C73.0468703,484.70314 72.578125,488.781225 72.578125,493.84375 L73,503.757812 Z M120.039062,501.367188 L120.25,509.804688 L120.179688,523.585938 C120.179688,524.757818 120.203125,526.140617 120.25,527.734375 C120.296875,529.328133 120.355468,531.425768 120.425781,534.027344 C120.496094,536.628919 120.636718,539.207018 120.847656,541.761719 C121.058595,544.316419 121.304686,547.011705 121.585938,549.847656 C121.867189,552.683608 122.242185,555.308582 122.710938,557.722656 C123.17969,560.136731 123.69531,562.328115 124.257812,564.296875 C125.523444,568.562521 127.18749,570.695312 129.25,570.695312 C132.015639,570.695312 134.124993,568.093776 135.578125,562.890625 C137.734386,555.156211 138.8125,545.640681 138.8125,534.34375 L139.023438,519.507812 C139.023438,509.10151 138.566411,502.093768 137.652344,498.484375 C136.738277,494.874982 135.882816,492.156259 135.085938,490.328125 C133.49218,486.624981 131.078141,484.773438 127.84375,484.773438 L127.5625,484.773438 C122.54685,484.773438 120.039062,490.304632 120.039062,501.367188 Z M146.757812,535.257812 C146.757812,562.867326 141.109431,576.671875 129.8125,576.671875 C119.406198,576.671875 113.570319,563.593881 112.304688,537.4375 C112.210937,534.953113 112.164062,532.468762 112.164062,529.984375 L112.09375,521.195312 L112.09375,518.382812 C112.09375,498.085836 115.070283,485.546899 121.023438,480.765625 C122.47657,479.593744 124.093741,478.960938 125.875,478.867188 C127.234382,479.33594 128.898428,479.769529 130.867188,480.167969 C132.835947,480.566408 134.289058,480.97656 135.226562,481.398438 C136.960946,482.195316 138.835927,484.269514 140.851562,487.621094 C142.867198,490.972673 144.355464,495.449191 145.316406,501.050781 C146.277349,506.652372 146.757812,512.265597 146.757812,517.890625 L146.757812,535.257812 Z M168.554688,517.1875 L169.398438,554.453125 L169.398438,570.765625 C169.398438,572.031256 169.070316,573.097652 168.414062,573.964844 C167.757809,574.832036 166.843756,575.265625 165.671875,575.265625 C162.531234,575.265625 160.960938,572.335967 160.960938,566.476562 L160.679688,515.710938 L161.523438,488.851562 C161.523438,482.38278 163.281232,479.148438 166.796875,479.148438 C168.906261,479.148438 170.429683,480.765609 171.367188,484 C172.679694,490.187531 174.964827,499.081973 178.222656,510.683594 C181.480485,522.285214 183.718744,531.109345 184.9375,537.15625 C185.828129,540.10939 186.976555,544.48044 188.382812,550.269531 C189.78907,556.058623 190.890621,560.406235 191.6875,563.3125 C192.062502,542.499896 192.25,517.281398 192.25,487.65625 L192.039062,483.789062 C192.039062,482.476556 192.285154,481.433598 192.777344,480.660156 C193.269534,479.886715 194.101557,479.5 195.273438,479.5 C196.445318,479.5 197.406246,479.781247 198.15625,480.34375 C199.656257,481.468756 200.40625,483.06249 200.40625,485.125 C200.40625,498.296941 200.031254,515.218647 199.28125,535.890625 C198.531246,556.562603 197.406258,569.476537 195.90625,574.632812 C195.718749,574.679688 195.320316,574.808593 194.710938,575.019531 C194.101559,575.23047 193.656251,575.359375 193.375,575.40625 C190.703112,576.015628 189.015629,575.898442 188.3125,575.054688 C187.609371,574.210933 187.10547,573.085945 186.800781,571.679688 C186.496092,570.27343 186.144533,568.90235 185.746094,567.566406 C185.347654,566.230462 183.859388,559.843807 181.28125,548.40625 C174.390591,518.171724 170.148445,500.593775 168.554688,495.671875 L168.554688,517.1875 Z M250.46875,477.109375 C252.671886,477.109375 253.773438,477.742181 253.773438,479.007812 C253.773438,484.398464 252.625011,491.183553 250.328125,499.363281 C248.031239,507.54301 246.636721,513.144516 246.144531,516.167969 C245.652341,519.191421 245.125003,523.632783 244.5625,529.492188 C243.999997,535.351592 243.542971,539.417957 243.191406,541.691406 C242.839842,543.964855 242.207036,546.800764 241.292969,550.199219 C240.378902,553.597673 239.816407,555.894525 239.605469,557.089844 C239.39453,558.285162 239.230469,559.785147 239.113281,561.589844 C238.996093,563.39454 238.843751,564.999993 238.65625,566.40625 C238.468749,567.812507 238.164065,569.265617 237.742188,570.765625 C236.757808,574.046891 234.789077,575.6875 231.835938,575.6875 L228.601562,573.507812 C228.601562,561.835879 227.488292,549.929748 225.261719,537.789062 C223.035145,525.648377 220.855479,515.453166 218.722656,507.203125 C216.589833,498.953084 215.148441,493.726574 214.398438,491.523438 C212.710929,486.320286 211.867188,483.085944 211.867188,481.820312 C211.867188,480.554681 212.230465,479.593753 212.957031,478.9375 C213.683597,478.281247 214.527339,477.953125 215.488281,477.953125 C216.449224,477.953125 217.328121,478.351559 218.125,479.148438 C218.921879,479.945316 219.554685,481.070305 220.023438,482.523438 C220.49219,483.97657 220.867186,485.324213 221.148438,486.566406 C221.429689,487.8086 221.699217,489.238273 221.957031,490.855469 C222.214845,492.472664 222.390625,493.492185 222.484375,493.914062 C227.359399,516.132924 231.203111,537.038965 234.015625,556.632812 C234.765629,552.835919 235.644526,546.601606 236.652344,537.929688 C237.660161,529.257769 239.535143,517.76179 242.277344,503.441406 C245.019545,489.121022 246.671872,480.343766 247.234375,477.109375 L250.46875,477.109375 Z M279.648438,568.585938 L285.34375,568.234375 C289.000018,568.234375 290.828125,569.406238 290.828125,571.75 C290.828125,573.203132 290.195319,574.257809 288.929688,574.914062 C287.664056,575.570316 286.234383,575.898438 284.640625,575.898438 L271.070312,575.898438 C269.851556,575.898438 268.808598,575.476567 267.941406,574.632812 C267.074214,573.789058 266.605469,572.710944 266.535156,571.398438 C266.464843,570.085931 266.558592,568.445322 266.816406,566.476562 C267.07422,564.507803 267.203125,562.937506 267.203125,561.765625 L266.5,543.34375 L267.484375,501.296875 L266.710938,489.132812 C266.710938,482.335904 268.726542,478.9375 272.757812,478.9375 C273.882818,478.9375 274.937495,479.289059 275.921875,479.992188 C276.296877,480.039063 277.199212,480.121093 278.628906,480.238281 C280.058601,480.355469 281.312495,480.507812 282.390625,480.695312 C283.468755,480.882813 284.640619,481.140623 285.90625,481.46875 C288.625014,482.218754 289.984375,483.507803 289.984375,485.335938 C289.984375,487.304697 288.578139,488.804682 285.765625,489.835938 C281.359353,488.33593 277.726577,487.421877 274.867188,487.09375 C275.007813,489.15626 275.078125,491.21874 275.078125,493.28125 L274.445312,513.953125 C274.445312,514.046875 274.585936,514.796868 274.867188,516.203125 L280,515.992188 C284.640648,515.992188 286.960938,517.304674 286.960938,519.929688 C286.960938,521.335945 286.550785,522.57812 285.730469,523.65625 C284.910152,524.73438 283.750007,525.273438 282.25,525.273438 C280.749992,525.273438 279.437506,524.851567 278.3125,524.007812 L274.65625,524.007812 C274.937501,527.664081 275.078125,531.132796 275.078125,534.414062 L274.445312,560.5 C274.445312,565.890652 276.17967,568.585938 279.648438,568.585938 Z M310.445312,517.1875 L311.289062,554.453125 L311.289062,570.765625 C311.289062,572.031256 310.960941,573.097652 310.304688,573.964844 C309.648434,574.832036 308.734381,575.265625 307.5625,575.265625 C304.421859,575.265625 302.851562,572.335967 302.851562,566.476562 L302.570312,515.710938 L303.414062,488.851562 C303.414062,482.38278 305.171857,479.148438 308.6875,479.148438 C310.796886,479.148438 312.320308,480.765609 313.257812,484 C314.570319,490.187531 316.855452,499.081973 320.113281,510.683594 C323.37111,522.285214 325.609369,531.109345 326.828125,537.15625 C327.718754,540.10939 328.86718,544.48044 330.273438,550.269531 C331.679695,556.058623 332.781246,560.406235 333.578125,563.3125 C333.953127,542.499896 334.140625,517.281398 334.140625,487.65625 L333.929688,483.789062 C333.929688,482.476556 334.175779,481.433598 334.667969,480.660156 C335.160159,479.886715 335.992182,479.5 337.164062,479.5 C338.335943,479.5 339.296871,479.781247 340.046875,480.34375 C341.546883,481.468756 342.296875,483.06249 342.296875,485.125 C342.296875,498.296941 341.921879,515.218647 341.171875,535.890625 C340.421871,556.562603 339.296882,569.476537 337.796875,574.632812 C337.609374,574.679688 337.210941,574.808593 336.601562,575.019531 C335.992184,575.23047 335.546876,575.359375 335.265625,575.40625 C332.593737,576.015628 330.906254,575.898442 330.203125,575.054688 C329.499996,574.210933 328.996095,573.085945 328.691406,571.679688 C328.386717,570.27343 328.035158,568.90235 327.636719,567.566406 C327.238279,566.230462 325.750013,559.843807 323.171875,548.40625 C316.281216,518.171724 312.03907,500.593775 310.445312,495.671875 L310.445312,517.1875 Z M374.78125,572.382812 L369.367188,572.453125 L363.109375,572.734375 C360.437487,572.734375 358.656254,571.867196 357.765625,570.132812 C357.765625,568.726555 357.941404,567.636723 358.292969,566.863281 C358.644533,566.08984 359.382807,565.703125 360.507812,565.703125 L364.585938,565.703125 L364.867188,563.804688 L363.882812,533.21875 L364.65625,501.15625 C364.65625,495.765598 364.421877,490.656274 363.953125,485.828125 L358.363281,485.828125 C356.652335,485.828125 355.398441,485.558596 354.601562,485.019531 C353.804684,484.480466 353.40625,483.460945 353.40625,481.960938 C353.40625,479.710926 356.007786,478.609375 361.210938,478.65625 L361.703125,478.65625 C374.031312,478.65625 380.195312,480.296859 380.195312,483.578125 C380.195312,484.093753 379.914065,484.984369 379.351562,486.25 L371.96875,486.25 C372.343752,489.765643 372.53125,493.890601 372.53125,498.625 L371.757812,526.117188 L372.8125,556.703125 L372.8125,560.992188 C372.8125,561.835942 372.648439,563.124991 372.320312,564.859375 L378.4375,564.859375 C382.37502,564.859375 384.34375,566.054676 384.34375,568.445312 C384.34375,569.523443 384.00391,570.437496 383.324219,571.1875 C382.644528,571.937504 381.882817,572.3125 381.039062,572.3125 L374.78125,572.382812 Z M408.8125,568.585938 L414.507812,568.234375 C418.164081,568.234375 419.992188,569.406238 419.992188,571.75 C419.992188,573.203132 419.359381,574.257809 418.09375,574.914062 C416.828119,575.570316 415.398445,575.898438 413.804688,575.898438 L400.234375,575.898438 C399.015619,575.898438 397.972661,575.476567 397.105469,574.632812 C396.238277,573.789058 395.769532,572.710944 395.699219,571.398438 C395.628906,570.085931 395.722655,568.445322 395.980469,566.476562 C396.238283,564.507803 396.367188,562.937506 396.367188,561.765625 L395.664062,543.34375 L396.648438,501.296875 L395.875,489.132812 C395.875,482.335904 397.890605,478.9375 401.921875,478.9375 C403.046881,478.9375 404.101558,479.289059 405.085938,479.992188 C405.460939,480.039063 406.363274,480.121093 407.792969,480.238281 C409.222663,480.355469 410.476557,480.507812 411.554688,480.695312 C412.632818,480.882813 413.804681,481.140623 415.070312,481.46875 C417.789076,482.218754 419.148438,483.507803 419.148438,485.335938 C419.148438,487.304697 417.742202,488.804682 414.929688,489.835938 C410.523415,488.33593 406.890639,487.421877 404.03125,487.09375 C404.171876,489.15626 404.242188,491.21874 404.242188,493.28125 L403.609375,513.953125 C403.609375,514.046875 403.749999,514.796868 404.03125,516.203125 L409.164062,515.992188 C413.804711,515.992188 416.125,517.304674 416.125,519.929688 C416.125,521.335945 415.714848,522.57812 414.894531,523.65625 C414.074215,524.73438 412.91407,525.273438 411.414062,525.273438 C409.914055,525.273438 408.601568,524.851567 407.476562,524.007812 L403.820312,524.007812 C404.101564,527.664081 404.242188,531.132796 404.242188,534.414062 L403.609375,560.5 C403.609375,565.890652 405.343733,568.585938 408.8125,568.585938 Z M439.609375,517.1875 L440.453125,554.453125 L440.453125,570.765625 C440.453125,572.031256 440.125003,573.097652 439.46875,573.964844 C438.812497,574.832036 437.898443,575.265625 436.726562,575.265625 C433.585922,575.265625 432.015625,572.335967 432.015625,566.476562 L431.734375,515.710938 L432.578125,488.851562 C432.578125,482.38278 434.33592,479.148438 437.851562,479.148438 C439.960948,479.148438 441.48437,480.765609 442.421875,484 C443.734382,490.187531 446.019515,499.081973 449.277344,510.683594 C452.535173,522.285214 454.773431,531.109345 455.992188,537.15625 C456.882817,540.10939 458.031243,544.48044 459.4375,550.269531 C460.843757,556.058623 461.945309,560.406235 462.742188,563.3125 C463.117189,542.499896 463.304688,517.281398 463.304688,487.65625 L463.09375,483.789062 C463.09375,482.476556 463.339841,481.433598 463.832031,480.660156 C464.324221,479.886715 465.156244,479.5 466.328125,479.5 C467.500006,479.5 468.460934,479.781247 469.210938,480.34375 C470.710945,481.468756 471.460938,483.06249 471.460938,485.125 C471.460938,498.296941 471.085941,515.218647 470.335938,535.890625 C469.585934,556.562603 468.460945,569.476537 466.960938,574.632812 C466.773437,574.679688 466.375003,574.808593 465.765625,575.019531 C465.156247,575.23047 464.710939,575.359375 464.429688,575.40625 C461.757799,576.015628 460.070316,575.898442 459.367188,575.054688 C458.664059,574.210933 458.160158,573.085945 457.855469,571.679688 C457.55078,570.27343 457.199221,568.90235 456.800781,567.566406 C456.402342,566.230462 454.914075,559.843807 452.335938,548.40625 C445.445278,518.171724 441.203133,500.593775 439.609375,495.671875 L439.609375,517.1875 Z M498.460938,560.640625 L498.742188,555.71875 C498.367186,554.499994 497.593756,543.660259 496.421875,523.199219 C495.249994,502.738179 494.617188,490.257835 494.523438,485.757812 C488.99216,485.617187 485.570319,485.113286 484.257812,484.246094 C482.945306,483.378902 482.289062,482.476567 482.289062,481.539062 C482.289062,480.601558 482.804682,479.839847 483.835938,479.253906 C484.867193,478.667966 485.874995,478.375 486.859375,478.375 L506.40625,479.710938 L508.726562,479.640625 C511.726577,479.640625 513.226562,480.789051 513.226562,483.085938 C513.226562,484.257818 512.73438,485.207028 511.75,485.933594 C510.76562,486.66016 509.664069,487.023438 508.445312,487.023438 L501.835938,486.039062 L501.554688,487.515625 C501.554688,496.60942 502.351555,510.226472 503.945312,528.367188 C505.53907,546.507903 506.335938,560.148392 506.335938,569.289062 C506.335938,570.460943 505.902348,571.468746 505.035156,572.3125 C504.167964,573.156254 503.148443,573.578125 501.976562,573.578125 L498.742188,573.578125 L498.460938,560.640625 Z M542.546875,572.3125 C542.546875,569.734362 543.624989,568.445312 545.78125,568.445312 C546.85938,568.445312 548.277335,568.80859 550.035156,569.535156 C551.792978,570.261722 553.3164,570.625 554.605469,570.625 C555.894538,570.625 557.289055,569.804696 558.789062,568.164062 C560.28907,566.523429 561.460933,564.484387 562.304688,562.046875 C564.039071,557.124975 564.90625,552.648458 564.90625,548.617188 C564.90625,544.585917 564.203132,540.27346 562.796875,535.679688 C561.390618,531.085915 559.667979,526.773458 557.628906,522.742188 C555.589834,518.710917 553.56251,514.679708 551.546875,510.648438 C546.718726,500.992139 544.304688,492.226602 544.304688,484.351562 C544.304688,476.851525 546.671851,470.968771 551.40625,466.703125 C553.937513,464.453114 556.914045,463.328125 560.335938,463.328125 C562.070321,463.328125 563.757804,463.808589 565.398438,464.769531 C567.039071,465.730474 568.187497,466.984367 568.84375,468.53125 L568.84375,471.625 C564.81248,471.625 562.117194,471.156255 560.757812,470.21875 C558.976554,470.406251 557.429694,471.249992 556.117188,472.75 C553.726551,475.562514 552.53125,478.808575 552.53125,482.488281 C552.53125,486.167987 553.070307,489.964824 554.148438,493.878906 C555.226568,497.792988 556.515617,501.472639 558.015625,504.917969 C559.515633,508.363298 561.027336,511.562485 562.550781,514.515625 C564.074226,517.468765 565.374995,519.882803 566.453125,521.757812 C567.531255,523.632822 568.070312,524.617187 568.070312,524.710938 L568.070312,525.835938 C568.398439,527.054694 568.960934,528.976549 569.757812,531.601562 C570.554691,534.226576 571.187498,536.312492 571.65625,537.859375 C572.828131,542.078146 573.414062,545.89842 573.414062,549.320312 C573.414062,552.742205 573.00391,555.999985 572.183594,559.09375 C571.363277,562.187515 570.191414,565.105455 568.667969,567.847656 C567.144524,570.589857 565.082044,572.828116 562.480469,574.5625 C559.878893,576.296884 557.453136,577.164062 555.203125,577.164062 C552.953114,577.164062 551.054695,577.046876 549.507812,576.8125 C547.96093,576.578124 546.41407,576.062504 544.867188,575.265625 C543.320305,574.468746 542.546875,573.484381 542.546875,572.3125 Z M619.75,509.804688 L619.890625,512.265625 C619.187496,515.640642 618.73047,521.441365 618.519531,529.667969 C618.308593,537.894572 617.898441,544.527319 617.289062,549.566406 C616.679684,554.605494 615.85938,559.035137 614.828125,562.855469 C613.79687,566.6758 612.144543,569.85155 609.871094,572.382812 C607.597645,574.914075 605.06642,576.179688 602.277344,576.179688 C599.488267,576.179688 597.203134,575.675786 595.421875,574.667969 C593.640616,573.660151 592.187506,572.207041 591.0625,570.308594 C589.937494,568.410147 589.000004,566.371105 588.25,564.191406 C587.499996,562.011708 586.937502,559.492202 586.5625,556.632812 C585.906247,551.617162 585.578125,546.32034 585.578125,540.742188 L586.351562,502.773438 C586.351562,494.476521 585.765631,487.609402 584.59375,482.171875 L584.59375,478.726562 C586.890636,478.726562 588.707025,479.617179 590.042969,481.398438 C591.378913,483.179696 592.046875,485.171864 592.046875,487.375 L592.046875,557.054688 C592.046875,560.757831 592.972647,564.144516 594.824219,567.214844 C596.675791,570.285172 599.406232,571.820312 603.015625,571.820312 C607.09377,571.820312 609.812493,559.961056 611.171875,536.242188 L611.171875,535.609375 L611.242188,534.695312 C612.460944,513.038954 613.070312,495.50788 613.070312,482.101562 L613,479.710938 C613,478.585932 613.25781,477.74219 613.773438,477.179688 C614.289065,476.617185 615.27343,476.335938 616.726562,476.335938 C618.179695,476.335938 619.257809,476.734371 619.960938,477.53125 C620.664066,478.328129 621.074218,479.136715 621.191406,479.957031 C621.308594,480.777348 621.367188,481.890618 621.367188,483.296875 L620.382812,497.78125 L619.75,509.804688 Z M635.78125,537.15625 L636.414062,491.523438 C636.414062,488.195296 636.367188,485.710946 636.273438,484.070312 L636.273438,482.734375 C636.273438,478.74998 637.632799,476.757812 640.351562,476.757812 C642.507823,476.757812 645.414044,477.367181 649.070312,478.585938 C652.726581,479.804694 654.554688,481.234367 654.554688,482.875 C654.554688,485.031261 655.269524,488.183573 656.699219,492.332031 C658.128913,496.480489 658.84375,499.609364 658.84375,501.71875 C658.84375,508.234408 658.375005,512.933579 657.4375,515.816406 C656.499995,518.699233 655.023448,521.570298 653.007812,524.429688 C655.773451,527.101576 657.578121,530.464823 658.421875,534.519531 C659.265629,538.574239 659.6875,542.652323 659.6875,546.753906 C659.6875,550.855489 659.453127,554.171862 658.984375,556.703125 C658.515623,559.234388 657.742193,561.648426 656.664062,563.945312 C655.585932,566.242199 654.273445,568.234367 652.726562,569.921875 C649.30467,573.578143 644.687529,575.40625 638.875,575.40625 C636.81249,575.40625 635.52344,574.515634 635.007812,572.734375 C634.585935,571.421868 634.375,569.78126 634.375,567.8125 L635.78125,537.15625 Z M643.445312,556.84375 C642.835934,557.875005 642.53125,559.468739 642.53125,561.625 L642.53125,568.09375 C645.625015,567.343746 647.968742,565.433609 649.5625,562.363281 C651.156258,559.292953 651.953125,556.445326 651.953125,553.820312 C651.953125,551.195299 651.917969,549.097664 651.847656,547.527344 C651.777343,545.957023 651.578127,544.046886 651.25,541.796875 C650.921873,539.546864 650.476565,537.578133 649.914062,535.890625 C648.554681,531.81248 646.445327,529.445316 643.585938,528.789062 C643.210936,534.32034 643.023438,540.085907 643.023438,546.085938 C643.023438,552.085968 643.164061,555.671869 643.445312,556.84375 Z M643.445312,483.4375 L643.445312,520.351562 C648.273462,520.210937 650.6875,514.375058 650.6875,502.84375 C650.6875,499.79686 650.335941,496.632829 649.632812,493.351562 C648.226555,487.023406 646.164076,483.718751 643.445312,483.4375 Z M680.640625,567.742188 L680.851562,572.03125 C680.851562,573.578133 680.535159,574.761715 679.902344,575.582031 C679.269528,576.402348 678.250007,576.8125 676.84375,576.8125 C675.437493,576.8125 674.289067,576.47266 673.398438,575.792969 C672.507808,575.113278 672.085937,574.128913 672.132812,572.839844 C672.179688,571.550775 672.730463,559.527458 673.785156,536.769531 C674.839849,514.011605 675.367188,496.867245 675.367188,485.335938 C675.507813,482.898425 675.882809,481.269535 676.492188,480.449219 C677.101566,479.628902 677.968744,479.171875 679.09375,479.078125 C680.218756,478.984375 680.968748,479.031249 681.34375,479.21875 C681.718752,479.406251 682.058592,479.722654 682.363281,480.167969 C682.66797,480.613283 682.92578,481.023436 683.136719,481.398438 C683.347657,481.773439 683.546874,482.347652 683.734375,483.121094 C683.921876,483.894535 684.0625,484.480467 684.15625,484.878906 C684.25,485.277346 684.367187,485.910152 684.507812,486.777344 C684.648438,487.644536 684.789062,488.488277 684.929688,489.308594 C685.070313,490.12891 685.773431,493.457002 687.039062,499.292969 C688.304694,505.128935 689.699211,512.652298 691.222656,521.863281 C692.746101,531.074265 694.515615,542.757742 696.53125,556.914062 C699.48439,541.117109 702.039052,526.140696 704.195312,511.984375 C706.351573,497.828054 707.488281,490.304692 707.605469,489.414062 C707.722657,488.523433 707.816406,487.86719 707.886719,487.445312 C707.957032,487.023435 708.085937,486.390629 708.273438,485.546875 C708.460938,484.703121 708.636718,484.046877 708.800781,483.578125 C708.964845,483.109373 709.210936,482.558597 709.539062,481.925781 C709.867189,481.292966 710.218748,480.812502 710.59375,480.484375 C711.484379,479.640621 712.539056,479.21875 713.757812,479.21875 C714.976569,479.21875 716.148432,479.570309 717.273438,480.273438 C718.398443,480.976566 718.960938,481.937494 718.960938,483.15625 C718.960938,505.18761 719.160154,520.44527 719.558594,528.929688 C719.957033,537.414105 720.15625,542.523429 720.15625,544.257812 L720.015625,567.460938 C720.437502,568.492193 720.648438,569.582026 720.648438,570.730469 C720.648438,571.878912 720.273441,573.109368 719.523438,574.421875 C718.773434,575.734382 717.789069,576.390625 716.570312,576.390625 C713.570297,576.390625 712.070312,573.390655 712.070312,567.390625 L712.28125,554.101562 C712.28125,544.773391 712.187501,536.429724 712,529.070312 C712.140626,524.710916 712.210938,513.320405 712.210938,494.898438 C710.757805,503.898483 708.7422,515.968674 706.164062,531.109375 C703.585925,546.250076 702.214845,554.277339 702.050781,555.191406 C701.886718,556.105473 701.757813,556.984371 701.664062,557.828125 C701.570312,558.671879 701.476563,559.398434 701.382812,560.007812 C701.289062,560.617191 701.113283,561.320309 700.855469,562.117188 C700.597655,562.914066 700.304689,563.57031 699.976562,564.085938 C699.179684,565.351569 698.054695,565.984375 696.601562,565.984375 C693.789048,565.984375 692.101565,563.921896 691.539062,559.796875 C690.789059,553.937471 689.253918,543.636792 686.933594,528.894531 C684.61327,514.15227 682.890631,504.226588 681.765625,499.117188 C681.015621,531.976727 680.640625,554.851498 680.640625,567.742188 Z M741.179688,501.367188 L741.390625,509.804688 L741.320312,523.585938 C741.320312,524.757818 741.34375,526.140617 741.390625,527.734375 C741.4375,529.328133 741.496093,531.425768 741.566406,534.027344 C741.636719,536.628919 741.777343,539.207018 741.988281,541.761719 C742.19922,544.316419 742.445311,547.011705 742.726562,549.847656 C743.007814,552.683608 743.38281,555.308582 743.851562,557.722656 C744.320315,560.136731 744.835935,562.328115 745.398438,564.296875 C746.664069,568.562521 748.328115,570.695312 750.390625,570.695312 C753.156264,570.695312 755.265618,568.093776 756.71875,562.890625 C758.875011,555.156211 759.953125,545.640681 759.953125,534.34375 L760.164062,519.507812 C760.164062,509.10151 759.707036,502.093768 758.792969,498.484375 C757.878902,494.874982 757.023441,492.156259 756.226562,490.328125 C754.632805,486.624981 752.218766,484.773438 748.984375,484.773438 L748.703125,484.773438 C743.687475,484.773438 741.179688,490.304632 741.179688,501.367188 Z M767.898438,535.257812 C767.898438,562.867326 762.250056,576.671875 750.953125,576.671875 C740.546823,576.671875 734.710944,563.593881 733.445312,537.4375 C733.351562,534.953113 733.304688,532.468762 733.304688,529.984375 L733.234375,521.195312 L733.234375,518.382812 C733.234375,498.085836 736.210908,485.546899 742.164062,480.765625 C743.617195,479.593744 745.234366,478.960938 747.015625,478.867188 C748.375007,479.33594 750.039053,479.769529 752.007812,480.167969 C753.976572,480.566408 755.429683,480.97656 756.367188,481.398438 C758.101571,482.195316 759.976552,484.269514 761.992188,487.621094 C764.007823,490.972673 765.496089,495.449191 766.457031,501.050781 C767.417974,506.652372 767.898438,512.265597 767.898438,517.890625 L767.898438,535.257812 Z M790.046875,500.523438 L791.664062,564.085938 L791.664062,567.53125 L794.265625,567.53125 C799.281275,561.43747 802.515618,555.8594 803.96875,550.796875 C805.328132,546.062476 806.007812,539.453167 806.007812,530.96875 C806.007812,501.999855 801.039112,486.859382 791.101562,485.546875 C790.398434,489.343769 790.046875,494.335907 790.046875,500.523438 Z M813.601562,517.1875 L813.320312,524.429688 L813.320312,532.304688 C813.320312,541.82036 812.898442,548.242171 812.054688,551.570312 C811.210933,554.898454 810.355473,557.640614 809.488281,559.796875 C808.621089,561.953136 807.578131,563.874992 806.359375,565.5625 C803.546861,569.359394 799.984397,572.453113 795.671875,574.84375 L785.828125,574.84375 C783.390613,574.84375 782.171875,568.562563 782.171875,556 L782.59375,510.648438 C782.59375,502.257771 782.429689,494.382849 782.101562,487.023438 C781.304684,486.085933 780.90625,484.972663 780.90625,483.683594 C780.90625,482.394525 781.445307,481.269536 782.523438,480.308594 C783.601568,479.347651 784.902336,478.867188 786.425781,478.867188 C787.949226,478.867188 789.249995,479.710929 790.328125,481.398438 C791.031254,481.679689 792.074212,481.937499 793.457031,482.171875 C794.839851,482.406251 795.859372,482.687498 796.515625,483.015625 C801.859402,485.500012 806.042954,489.8945 809.066406,496.199219 C812.089859,502.503938 813.601562,509.499962 813.601562,517.1875 Z M861.0625,509.804688 L861.203125,512.265625 C860.499996,515.640642 860.04297,521.441365 859.832031,529.667969 C859.621093,537.894572 859.210941,544.527319 858.601562,549.566406 C857.992184,554.605494 857.17188,559.035137 856.140625,562.855469 C855.10937,566.6758 853.457043,569.85155 851.183594,572.382812 C848.910145,574.914075 846.37892,576.179688 843.589844,576.179688 C840.800767,576.179688 838.515634,575.675786 836.734375,574.667969 C834.953116,573.660151 833.500006,572.207041 832.375,570.308594 C831.249994,568.410147 830.312504,566.371105 829.5625,564.191406 C828.812496,562.011708 828.250002,559.492202 827.875,556.632812 C827.218747,551.617162 826.890625,546.32034 826.890625,540.742188 L827.664062,502.773438 C827.664062,494.476521 827.078131,487.609402 825.90625,482.171875 L825.90625,478.726562 C828.203136,478.726562 830.019525,479.617179 831.355469,481.398438 C832.691413,483.179696 833.359375,485.171864 833.359375,487.375 L833.359375,557.054688 C833.359375,560.757831 834.285147,564.144516 836.136719,567.214844 C837.988291,570.285172 840.718732,571.820312 844.328125,571.820312 C848.40627,571.820312 851.124993,559.961056 852.484375,536.242188 L852.484375,535.609375 L852.554688,534.695312 C853.773444,513.038954 854.382812,495.50788 854.382812,482.101562 L854.3125,479.710938 C854.3125,478.585932 854.57031,477.74219 855.085938,477.179688 C855.601565,476.617185 856.58593,476.335938 858.039062,476.335938 C859.492195,476.335938 860.570309,476.734371 861.273438,477.53125 C861.976566,478.328129 862.386718,479.136715 862.503906,479.957031 C862.621094,480.777348 862.679688,481.890618 862.679688,483.296875 L861.695312,497.78125 L861.0625,509.804688 Z M884.6875,493.28125 L885.109375,527.875 C884.546872,529.234382 884.265625,531.835918 884.265625,535.679688 L883.703125,558.601562 C883.703125,565.210971 885.320296,568.515625 888.554688,568.515625 L894.53125,568.304688 C899.687526,568.304688 902.265625,569.710923 902.265625,572.523438 C902.265625,573.554693 901.820317,574.410153 900.929688,575.089844 C900.039058,575.769535 899.031256,576.179687 897.90625,576.320312 C894.390607,575.195307 890.101588,574.632812 885.039062,574.632812 C883.49218,575.523442 882.003913,575.96875 880.574219,575.96875 C879.144524,575.96875 878.031254,575.476567 877.234375,574.492188 C876.437496,573.507808 876.039062,572.429693 876.039062,571.257812 L877.445312,506.921875 L877.445312,505.867188 C877.164061,502.867173 877.023438,498.367218 877.023438,492.367188 C877.023438,483.273392 878.687483,478.726562 882.015625,478.726562 C883.000005,478.726562 883.855465,479.078121 884.582031,479.78125 C885.308597,480.484379 885.671875,481.32812 885.671875,482.3125 L884.6875,493.28125 Z M926.382812,568.585938 L932.078125,568.234375 C935.734393,568.234375 937.5625,569.406238 937.5625,571.75 C937.5625,573.203132 936.929694,574.257809 935.664062,574.914062 C934.398431,575.570316 932.968758,575.898438 931.375,575.898438 L917.804688,575.898438 C916.585931,575.898438 915.542973,575.476567 914.675781,574.632812 C913.808589,573.789058 913.339844,572.710944 913.269531,571.398438 C913.199218,570.085931 913.292967,568.445322 913.550781,566.476562 C913.808595,564.507803 913.9375,562.937506 913.9375,561.765625 L913.234375,543.34375 L914.21875,501.296875 L913.445312,489.132812 C913.445312,482.335904 915.460917,478.9375 919.492188,478.9375 C920.617193,478.9375 921.67187,479.289059 922.65625,479.992188 C923.031252,480.039063 923.933587,480.121093 925.363281,480.238281 C926.792976,480.355469 928.04687,480.507812 929.125,480.695312 C930.20313,480.882813 931.374994,481.140623 932.640625,481.46875 C935.359389,482.218754 936.71875,483.507803 936.71875,485.335938 C936.71875,487.304697 935.312514,488.804682 932.5,489.835938 C928.093728,488.33593 924.460952,487.421877 921.601562,487.09375 C921.742188,489.15626 921.8125,491.21874 921.8125,493.28125 L921.179688,513.953125 C921.179688,514.046875 921.320311,514.796868 921.601562,516.203125 L926.734375,515.992188 C931.375023,515.992188 933.695312,517.304674 933.695312,519.929688 C933.695312,521.335945 933.28516,522.57812 932.464844,523.65625 C931.644527,524.73438 930.484383,525.273438 928.984375,525.273438 C927.484367,525.273438 926.171881,524.851567 925.046875,524.007812 L921.390625,524.007812 C921.671876,527.664081 921.8125,531.132796 921.8125,534.414062 L921.179688,560.5 C921.179688,565.890652 922.914045,568.585938 926.382812,568.585938 Z M1008.08594,532.796875 L1008.50781,541.65625 L1008.50781,543.835938 L1008.15625,545.382812 L1008.22656,553.75 C1008.22656,562.187542 1007.03126,568.164045 1004.64062,571.679688 C1002.39061,574.960954 998.898461,576.601562 994.164062,576.601562 C988.398409,576.601562 984.01564,574.515646 981.015625,570.34375 C978.390612,566.781232 976.468756,562.00003 975.25,556 C973.703117,548.781214 972.460942,543.67189 971.523438,540.671875 C971.429687,540.437499 970.902349,529.703231 969.941406,508.46875 C968.980464,487.234269 968.5,475.445324 968.5,473.101562 C967.796871,472.304684 967.445312,471.320318 967.445312,470.148438 C967.445312,468.976557 967.855465,467.945317 968.675781,467.054688 C969.496098,466.164058 970.468744,465.71875 971.59375,465.71875 C975.062517,465.71875 976.796875,469.140591 976.796875,475.984375 L978.132812,526.046875 C978.695315,527.312506 979.175779,529.867168 979.574219,533.710938 C979.972658,537.554707 980.171875,540.542958 980.171875,542.675781 C980.171875,544.808604 980.511715,547.433578 981.191406,550.550781 C981.871097,553.667984 982.796869,556.820297 983.96875,560.007812 C985.140631,563.195328 986.722646,565.914051 988.714844,568.164062 C990.707041,570.414074 992.828114,571.539062 995.078125,571.539062 C998.734393,571.539062 1000.65625,568.234408 1000.84375,561.625 C1000.89063,560.781246 1000.91406,559.773443 1000.91406,558.601562 L1000.91406,493.984375 C1000.91406,491.265611 1000.39844,487.152371 999.367188,481.644531 C998.335932,476.136691 997.820312,472.410166 997.820312,470.464844 C997.820312,468.519522 998.300776,467.183597 999.261719,466.457031 C1000.22266,465.730465 1001.31249,465.367188 1002.53125,465.367188 L1006.89062,468.742188 L1006.89062,471.132812 L1005.625,479.921875 C1005.625,485.500028 1005.97656,493.667915 1006.67969,504.425781 C1007.38282,515.183648 1007.75781,523.164036 1007.80469,528.367188 L1007.80469,528.578125 L1008.08594,532.796875 Z M1031.5,495.601562 L1030.72656,523.65625 L1030.72656,523.867188 C1036.53909,523.070309 1039.44531,514.961015 1039.44531,499.539062 C1039.44531,493.914034 1038.20314,490.304695 1035.71875,488.710938 C1034.59374,488.007809 1033.18751,487.65625 1031.5,487.65625 L1031.5,495.601562 Z M1023.41406,511.773438 L1023.625,498.0625 C1023.625,492.390597 1023.22657,487.937516 1022.42969,484.703125 C1022.66406,483.484369 1023.12109,482.335943 1023.80078,481.257812 C1024.48047,480.179682 1025.33593,479.640625 1026.36719,479.640625 L1032.69531,479.640625 C1038.22659,479.640625 1042.11718,481.937477 1044.36719,486.53125 C1046.33595,490.609395 1047.32031,495.296849 1047.32031,500.59375 C1047.32031,507.296909 1047.15625,511.410149 1046.82812,512.933594 C1046.5,514.457039 1046.14844,515.898431 1045.77344,517.257812 C1045.39844,518.617194 1044.94141,519.718746 1044.40234,520.5625 C1043.86328,521.406254 1043.17188,522.332026 1042.32812,523.339844 C1041.48437,524.347661 1040.52344,525.203121 1039.44531,525.90625 C1037.05468,527.453133 1034.17189,528.76562 1030.79688,529.84375 L1030.79688,545.242188 L1031.92188,572.523438 C1031.92188,573.742194 1031.5,574.749996 1030.65625,575.546875 C1029.8125,576.343754 1028.78126,576.742188 1027.5625,576.742188 L1024.04688,576.742188 C1023.48437,574.117174 1023.20312,570.203151 1023.20312,565 L1022.85156,528.15625 L1023.41406,511.773438 Z M1068.76562,500.523438 L1070.38281,564.085938 L1070.38281,567.53125 L1072.98438,567.53125 C1078.00003,561.43747 1081.23437,555.8594 1082.6875,550.796875 C1084.04688,546.062476 1084.72656,539.453167 1084.72656,530.96875 C1084.72656,501.999855 1079.75786,486.859382 1069.82031,485.546875 C1069.11718,489.343769 1068.76562,494.335907 1068.76562,500.523438 Z M1092.32031,517.1875 L1092.03906,524.429688 L1092.03906,532.304688 C1092.03906,541.82036 1091.61719,548.242171 1090.77344,551.570312 C1089.92968,554.898454 1089.07422,557.640614 1088.20703,559.796875 C1087.33984,561.953136 1086.29688,563.874992 1085.07812,565.5625 C1082.26561,569.359394 1078.70315,572.453113 1074.39062,574.84375 L1064.54688,574.84375 C1062.10936,574.84375 1060.89062,568.562563 1060.89062,556 L1061.3125,510.648438 C1061.3125,502.257771 1061.14844,494.382849 1060.82031,487.023438 C1060.02343,486.085933 1059.625,484.972663 1059.625,483.683594 C1059.625,482.394525 1060.16406,481.269536 1061.24219,480.308594 C1062.32032,479.347651 1063.62109,478.867188 1065.14453,478.867188 C1066.66798,478.867188 1067.96874,479.710929 1069.04688,481.398438 C1069.75,481.679689 1070.79296,481.937499 1072.17578,482.171875 C1073.5586,482.406251 1074.57812,482.687498 1075.23438,483.015625 C1080.57815,485.500012 1084.7617,489.8945 1087.78516,496.199219 C1090.80861,502.503938 1092.32031,509.499962 1092.32031,517.1875 Z M1139.14844,550.726562 L1138.375,553.609375 C1138.375,554.781256 1138.79687,557.640602 1139.64062,562.1875 C1140.48438,566.734398 1140.90625,569.71093 1140.90625,571.117188 L1140.90625,571.257812 C1140.90625,573.414073 1140.17969,574.773435 1138.72656,575.335938 C1136.71093,575.335938 1135.14063,575.007816 1134.01562,574.351562 C1132.89062,573.695309 1132.32812,572.042982 1132.32812,569.394531 C1132.32812,566.746081 1131.62501,561.296916 1130.21875,553.046875 L1125.78906,552.625 L1121.00781,552.625 C1119.92968,552.156248 1118.03126,551.921875 1115.3125,551.921875 C1115.3125,552.015625 1115.25391,552.636713 1115.13672,553.785156 C1115.01953,554.933599 1114.92578,555.859371 1114.85547,556.5625 C1114.78516,557.265629 1114.66797,558.308587 1114.50391,559.691406 C1114.33984,561.074226 1114.16406,562.246089 1113.97656,563.207031 C1113.78906,564.167974 1113.55469,565.292962 1113.27344,566.582031 C1112.99219,567.8711 1112.67578,568.949214 1112.32422,569.816406 C1111.97265,570.683598 1111.58594,571.515621 1111.16406,572.3125 C1110.32031,573.953133 1109.28907,574.773438 1108.07031,574.773438 C1106.85156,574.773438 1105.76172,574.41016 1104.80078,573.683594 C1103.83984,572.957028 1103.35938,572.031256 1103.35938,570.90625 C1105.89064,561.203076 1108.05858,551.031303 1109.86328,540.390625 C1111.66798,529.749947 1112.74609,523.433604 1113.09766,521.441406 C1113.44922,519.449209 1114.26952,515.605497 1115.55859,509.910156 C1116.84766,504.214815 1117.62109,500.40626 1117.87891,498.484375 C1118.13672,496.56249 1118.38281,494.07814 1118.61719,491.03125 C1119.03906,484.374967 1119.90624,480.085947 1121.21875,478.164062 L1126.07031,478.164062 C1129.35158,478.164062 1130.99219,479.148428 1130.99219,481.117188 C1130.99219,499.632905 1132.79686,518.031159 1136.40625,536.3125 C1136.59375,537.39063 1136.94531,538.890615 1137.46094,540.8125 C1138.58594,544.984396 1139.14844,548.28905 1139.14844,550.726562 Z M1129.30469,547.632812 C1129.02344,546.226555 1128.88281,543.953141 1128.88281,540.8125 C1128.88281,537.671859 1128.6836,533.863304 1128.28516,529.386719 C1127.88672,524.910134 1127.3125,519.71878 1126.5625,513.8125 C1125.8125,507.90622 1125.29688,503.640638 1125.01562,501.015625 C1124.45312,503.734389 1123.35157,508.281218 1121.71094,514.65625 C1118.3828,527.921941 1116.67188,538.140589 1116.57812,545.3125 C1118.21876,546.39063 1122.4609,547.16406 1129.30469,547.632812 Z M1165.9375,560.640625 L1166.21875,555.71875 C1165.84375,554.499994 1165.07032,543.660259 1163.89844,523.199219 C1162.72656,502.738179 1162.09375,490.257835 1162,485.757812 C1156.46872,485.617187 1153.04688,485.113286 1151.73438,484.246094 C1150.42187,483.378902 1149.76562,482.476567 1149.76562,481.539062 C1149.76562,480.601558 1150.28124,479.839847 1151.3125,479.253906 C1152.34376,478.667966 1153.35156,478.375 1154.33594,478.375 L1173.88281,479.710938 L1176.20312,479.640625 C1179.20314,479.640625 1180.70312,480.789051 1180.70312,483.085938 C1180.70312,484.257818 1180.21094,485.207028 1179.22656,485.933594 C1178.24218,486.66016 1177.14063,487.023438 1175.92188,487.023438 L1169.3125,486.039062 L1169.03125,487.515625 C1169.03125,496.60942 1169.82812,510.226472 1171.42188,528.367188 C1173.01563,546.507903 1173.8125,560.148392 1173.8125,569.289062 C1173.8125,570.460943 1173.37891,571.468746 1172.51172,572.3125 C1171.64453,573.156254 1170.62501,573.578125 1169.45312,573.578125 L1166.21875,573.578125 L1165.9375,560.640625 Z M1205.52344,568.585938 L1211.21875,568.234375 C1214.87502,568.234375 1216.70312,569.406238 1216.70312,571.75 C1216.70312,573.203132 1216.07032,574.257809 1214.80469,574.914062 C1213.53906,575.570316 1212.10938,575.898438 1210.51562,575.898438 L1196.94531,575.898438 C1195.72656,575.898438 1194.6836,575.476567 1193.81641,574.632812 C1192.94921,573.789058 1192.48047,572.710944 1192.41016,571.398438 C1192.33984,570.085931 1192.43359,568.445322 1192.69141,566.476562 C1192.94922,564.507803 1193.07812,562.937506 1193.07812,561.765625 L1192.375,543.34375 L1193.35938,501.296875 L1192.58594,489.132812 C1192.58594,482.335904 1194.60154,478.9375 1198.63281,478.9375 C1199.75782,478.9375 1200.8125,479.289059 1201.79688,479.992188 C1202.17188,480.039063 1203.07421,480.121093 1204.50391,480.238281 C1205.9336,480.355469 1207.18749,480.507812 1208.26562,480.695312 C1209.34376,480.882813 1210.51562,481.140623 1211.78125,481.46875 C1214.50001,482.218754 1215.85938,483.507803 1215.85938,485.335938 C1215.85938,487.304697 1214.45314,488.804682 1211.64062,489.835938 C1207.23435,488.33593 1203.60158,487.421877 1200.74219,487.09375 C1200.88281,489.15626 1200.95312,491.21874 1200.95312,493.28125 L1200.32031,513.953125 C1200.32031,514.046875 1200.46094,514.796868 1200.74219,516.203125 L1205.875,515.992188 C1210.51565,515.992188 1212.83594,517.304674 1212.83594,519.929688 C1212.83594,521.335945 1212.42579,522.57812 1211.60547,523.65625 C1210.78515,524.73438 1209.62501,525.273438 1208.125,525.273438 C1206.62499,525.273438 1205.31251,524.851567 1204.1875,524.007812 L1200.53125,524.007812 C1200.8125,527.664081 1200.95312,531.132796 1200.95312,534.414062 L1200.32031,560.5 C1200.32031,565.890652 1202.05467,568.585938 1205.52344,568.585938 Z" id="Convenient-Submodule" fill="#25C4F1"></path>
    </g>
</svg>