<?xml version="1.0" encoding="UTF-8"?>
<svg width="941px" height="288px" viewBox="0 0 941 288" version="1.1" xmlns="http://www.w3.org/2000/svg" xmlns:xlink="http://www.w3.org/1999/xlink">
    <!-- Generator: Sketch 51.3 (57544) - http://www.bohemiancoding.com/sketch -->
    <title>Artboard</title>
    <desc>Created with Sketch.</desc>
    <defs></defs>
    <g id="Artboard" stroke="none" stroke-width="1" fill="none" fill-rule="evenodd">
        <g id="Matroyshka_Icon" transform="translate(439.000000, 0.000000)">
            <path d="M118.496332,284.140704 L43.59412,284.140704 C19.8949534,270.963217 3.85929648,245.666631 3.85929648,216.624215 C3.85929648,191.920959 15.4612119,169.927838 33.5127413,155.797844 C25.5120193,145.563614 20.7437186,132.679453 20.7437186,118.681446 C20.7437186,85.3733811 47.7416231,58.3718593 81.0452261,58.3718593 C114.348829,58.3718593 141.346734,85.3733811 141.346734,118.681446 C141.346734,132.679453 136.578433,145.563614 128.577711,155.797844 C146.62924,169.927838 158.231156,191.920959 158.231156,216.624215 C158.231156,245.666631 142.195499,270.963217 118.496332,284.140704 Z" id="Combined-Shape" stroke="#23292D" stroke-width="7.2361809" fill="#25C4F1"></path>
            <g id="Git/Icon-Black" stroke-width="1" transform="translate(36.663317, 175.115578)" fill="#23292D">
                <path d="M87.5081804,40.6207353 L48.5647263,1.6820566 C46.3240196,-0.560685533 42.6868442,-0.560685533 40.4433192,1.6820566 L32.357141,9.76901772 L42.6141947,20.0260714 C44.998713,19.2209765 47.7318397,19.7607752 49.6316884,21.6609997 C51.5414012,23.5730611 52.0773483,26.3295171 51.2520555,28.7220206 L61.1380328,38.6079979 C63.5297535,37.7838011 66.2892626,38.316288 68.1990537,40.229461 C70.8690817,42.8987062 70.8690817,47.2239386 68.1990537,49.8938884 C65.5286342,52.5646993 61.2034017,52.5646993 58.5314948,49.8938884 C56.5238461,47.8846739 56.0272769,44.9348511 57.0441359,42.4612431 L47.824374,33.2414811 L47.8235911,57.5031473 C48.4745406,57.8253888 49.0888522,58.2554774 49.631297,58.7955737 C52.3005422,61.4645057 52.3005422,65.7889553 49.631297,68.4623496 C46.961269,71.1312034 42.6340793,71.1312034 39.9668696,68.4623496 C37.297233,65.7891902 37.297233,61.4647405 39.9668696,58.7955737 C40.6266263,58.1369913 41.3900339,57.6385041 42.2046014,57.3043787 L42.2046014,32.8172483 C41.3896424,32.4845321 40.6271351,31.9897636 39.9663999,31.3258969 C37.9442682,29.3053309 37.4572499,26.3375022 38.4943068,23.8543433 L28.3828654,13.7413362 L1.68258503,40.4408336 C-0.560861677,42.6852981 -0.560861677,46.3224734 1.68258503,48.5653721 L40.6236906,87.5041291 C42.8656498,89.7468712 46.5015726,89.7468712 48.7466633,87.5041291 L87.5077107,48.7493446 C89.7504528,46.5055065 89.7504528,42.8672351 87.5077107,40.6240233" id="Shape" fill-rule="nonzero"></path>
            </g>
            <circle id="Oval-2" stroke="#23292D" stroke-width="7.2361809" fill="#FFFFFF" cx="81.0452261" cy="111.437186" r="33.7688442"></circle>
            <g id="Group" stroke-width="1" transform="translate(88.763819, 104.201005)" stroke="#23292D" stroke-linecap="round">
                <circle id="Oval-4" stroke-width="7.2361809" cx="7.2361809" cy="7.2361809" r="7.2361809"></circle>
                <path d="M14.7135678,7.35678392 L25.3266332,7.35678392" id="Line" stroke-width="7.2361809"></path>
            </g>
            <g id="Group-Copy-3" stroke-width="1" transform="translate(76.241189, 134.613048) rotate(-255.000000) translate(-76.241189, -134.613048) translate(67.075359, 127.376867)" stroke="#23292D">
                <path d="M0,14.4723618 C3.99643236,14.4723618 7.2361809,11.2326133 7.2361809,7.2361809 C7.2361809,3.23974854 3.99643236,0 0,0" id="Oval-4" stroke-width="7.2361809" stroke-linejoin="round"></path>
                <path d="M7.47738693,7.35678392 L18.0904523,7.35678392" id="Line" stroke-width="7.2361809" stroke-linecap="round"></path>
            </g>
            <g id="Group-Copy-2" stroke-width="1" transform="translate(81.286432, 31.356784) rotate(-270.000000) translate(-81.286432, -31.356784) translate(54.030151, 5.306533)" stroke="#23292D">
                <circle id="Oval-4" stroke-width="7.2361809" cx="36.1809045" cy="26.5326633" r="7.2361809"></circle>
                <path d="M20.8306468,11.1824056 C16.9021732,15.1108791 14.4723618,20.5380148 14.4723618,26.5326633 C14.4723618,32.5273119 16.9021732,37.9544475 20.8306468,41.8829211" id="Oval-4-Copy" stroke-width="7.2361809"></path>
                <path d="M10.5971416,0.466488319 C4.04968568,7.01394422 0,16.0591704 0,26.0502513 C0,36.0413322 4.04968568,45.0865583 10.5971416,51.6340142" id="Oval-4-Copy-2" stroke-width="7.2361809"></path>
                <path d="M43.6582915,26.6532663 L54.2713568,26.6532663" id="Line" stroke-width="7.2361809" stroke-linecap="round"></path>
            </g>
            <g id="Group-Copy" stroke-width="1" transform="translate(68.261307, 98.653266) rotate(-90.000000) translate(-68.261307, -98.653266) translate(53.306533, 91.417085)" stroke="#23292D">
                <circle id="Oval-4" stroke-width="7.2361809" fill="#25C4F1" cx="7.2361809" cy="7.2361809" r="7.2361809"></circle>
                <polyline id="Line" stroke-width="7.2361809" stroke-linecap="round" transform="translate(22.334440, 3.794004) scale(1, -1) translate(-22.334440, -3.794004) " points="14.9547739 0.48241206 23.5844937 0.48241206 29.714107 7.10559554"></polyline>
            </g>
        </g>
        <g id="Group-Copy" transform="translate(-412.000000, -11.000000)" fill="#23292D" font-family="AmaticSC-Bold, Amatic SC" font-size="288" font-weight="bold">
            <text id="shka">
                <tspan x="1013" y="293">shka</tspan>
            </text>
            <text id="Matry">
                <tspan x="398.609375" y="293">Matry</tspan>
            </text>
        </g>
    </g>
</svg>