<?xml version="1.0" encoding="UTF-8"?>
<svg width="1280px" height="640px" viewBox="0 0 1280 640" version="1.1" xmlns="http://www.w3.org/2000/svg" xmlns:xlink="http://www.w3.org/1999/xlink">
    <!-- Generator: Sketch 51.3 (57544) - http://www.bohemiancoding.com/sketch -->
    <title>Artboard</title>
    <desc>Created with Sketch.</desc>
    <defs></defs>
    <g id="Artboard" stroke="none" stroke-width="1" fill="none" fill-rule="evenodd">
        <g id="Group" transform="translate(-523.000000, 24.000000)">
            <g id="Matroyshka_Icon" transform="translate(1121.402763, 14.495218)">
                <path d="M155.418531,374.425582 L57.1775849,374.425582 C26.0940096,357.060987 5.06181228,323.726485 5.06181228,285.455927 C5.06181228,252.903283 20.2787613,223.921912 43.9549556,205.302154 C33.4612937,191.816027 27.207241,174.837961 27.207241,156.392129 C27.207241,112.500523 62.6174059,76.919347 106.298058,76.919347 C149.97871,76.919347 185.388875,112.500523 185.388875,156.392129 C185.388875,174.837961 179.134822,191.816027 168.64116,205.302154 C192.317355,223.921912 207.534304,252.903283 207.534304,285.455927 C207.534304,323.726485 186.502106,357.060987 155.418531,374.425582 Z" id="Combined-Shape" stroke="#23292D" stroke-width="9.53545624" fill="#25C4F1"></path>
                <g id="Git/Icon-Black" stroke-width="1" transform="translate(48.087217, 230.758041)" fill="#23292D">
                    <path d="M114.7748,53.5278552 L63.6969793,2.21652517 C60.7580922,-0.738841722 55.9876116,-0.738841722 53.045028,2.21652517 L42.4392825,12.8730946 L55.8923252,26.3892971 C59.0198342,25.3283856 62.6045741,26.0397038 65.0963955,28.5437191 C67.6011545,31.0633324 68.304097,34.6956442 67.2216518,37.8483587 L80.1879946,50.8755764 C83.3249501,49.7894935 86.9442929,50.4911765 89.4491546,53.0122547 C92.951135,56.5296447 92.951135,62.2292071 89.4491546,65.7475256 C85.9466608,69.2669789 80.2737318,69.2669789 76.7692871,65.7475256 C74.1360763,63.0998891 73.4847814,59.2127687 74.8184829,55.9531789 L62.7259411,43.8038646 L62.7249143,75.7746043 C63.5786927,76.1992372 64.3844172,76.7659851 65.0958821,77.4776954 C68.5968357,80.9946727 68.5968357,86.6932036 65.0958821,90.2160612 C61.5939017,93.7329354 55.9184057,93.7329354 52.4201218,90.2160612 C48.9186548,86.6935131 48.9186548,80.9949822 52.4201218,77.4776954 C53.2854516,76.6098503 54.2867289,75.9529703 55.3551071,75.5126776 L55.3551071,43.2448331 C54.2862155,42.8063973 53.286119,42.1544174 52.4195057,41.279609 C49.7672992,38.6170141 49.1285313,34.7061666 50.488724,31.4339912 L37.2266648,18.1076056 L2.20686066,53.2907903 C-0.735620219,56.2484268 -0.735620219,61.041304 2.20686066,63.9968772 L53.2816012,115.30831 C56.2221311,118.263677 60.9909688,118.263677 63.935606,115.30831 L114.774184,64.2393064 C117.715741,61.2824953 117.715741,56.4881738 114.774184,53.5321879" id="Shape" fill-rule="nonzero"></path>
                </g>
                <ellipse id="Oval-2" stroke="#23292D" stroke-width="9.53545624" fill="#FFFFFF" cx="106.298058" cy="146.846026" rx="44.2908575" ry="44.4987958"></ellipse>
                <g id="Group" stroke-width="1" transform="translate(116.421683, 137.310570)" stroke="#23292D" stroke-linecap="round">
                    <ellipse id="Oval-4" stroke-width="9.53545624" cx="9.49089803" cy="9.53545624" rx="9.49089803" ry="9.53545624"></ellipse>
                    <path d="M19.2981593,9.69438051 L33.2181431,9.69438051" id="Line" stroke-width="9.53545624"></path>
                </g>
                <g id="Group-Copy-3" stroke-width="1" transform="translate(99.997133, 177.385950) rotate(-255.000000) translate(-99.997133, -177.385950) translate(87.975329, 167.850494)" stroke="#23292D">
                    <path d="M0,19.0709125 C5.24167825,19.0709125 9.49089803,14.8017433 9.49089803,9.53545624 C9.49089803,4.26916918 5.24167825,0 0,0" id="Oval-4" stroke-width="9.53545624" stroke-linejoin="round"></path>
                    <path d="M9.8072613,9.69438051 L23.7272451,9.69438051" id="Line" stroke-width="9.53545624" stroke-linecap="round"></path>
                </g>
                <g id="Group-Copy-2" stroke-width="1" transform="translate(106.614421, 41.320310) rotate(-270.000000) translate(-106.614421, -41.320310) translate(70.865372, 6.992668)" stroke="#23292D">
                    <ellipse id="Oval-4" stroke-width="9.53545624" cx="47.4544902" cy="34.9633395" rx="9.49089803" ry="9.53545624"></ellipse>
                    <path d="M27.3212551,14.7355822 C22.1687109,19.9123168 18.9817961,27.063909 18.9817961,34.9633395 C18.9817961,42.8627701 22.1687109,50.0143623 27.3212551,55.1910969" id="Oval-4-Copy" stroke-width="9.53545624"></path>
                    <path d="M13.8990984,0.614713619 C5.31152473,9.2426045 0,21.1619248 0,34.3276425 C0,47.4933601 5.31152473,59.4126804 13.8990984,68.0405713" id="Oval-4-Copy-2" stroke-width="9.53545624"></path>
                    <path d="M57.2617515,35.1222638 L71.1817352,35.1222638" id="Line" stroke-width="9.53545624" stroke-linecap="round"></path>
                </g>
                <g id="Group-Copy" stroke-width="1" transform="translate(89.530805, 130.000053) rotate(-90.000000) translate(-89.530805, -130.000053) translate(69.916282, 120.464597)" stroke="#23292D">
                    <ellipse id="Oval-4" stroke-width="9.53545624" fill="#25C4F1" cx="9.49089803" cy="9.53545624" rx="9.49089803" ry="9.53545624"></ellipse>
                    <polyline id="Line" stroke-width="9.53545624" stroke-linecap="round" transform="translate(29.293615, 4.999537) scale(1, -1) translate(-29.293615, -4.999537) " points="19.6145226 0.635697083 30.9331715 0.635697083 38.9727072 9.36337776"></polyline>
                </g>
            </g>
            <g id="Group-Copy" fill="#23292D" font-family="AmaticSC-Bold, Amatic SC" font-size="379.511158" font-weight="bold">
                <text id="shka">
                    <tspan x="1334.87779" y="386">shka</tspan>
                </text>
                <text id="Matry">
                    <tspan x="525.266339" y="386">Matry</tspan>
                </text>
            </g>
        </g>
        <text id="Convenient-Submodule" font-family="AmaticSC-Bold, Amatic SC" font-size="144" font-weight="bold" fill="#25C4F1">
            <tspan x="58.515625" y="574">Convenient Submodule Update</tspan>
        </text>
    </g>
</svg>