<?xml version="1.0" encoding="UTF-8"?>
<svg width="336px" height="597px" viewBox="0 0 336 597" version="1.1" xmlns="http://www.w3.org/2000/svg" xmlns:xlink="http://www.w3.org/1999/xlink">
    <!-- Generator: Sketch 51.3 (57544) - http://www.bohemiancoding.com/sketch -->
    <title>Artboard 3</title>
    <desc>Created with Sketch.</desc>
    <defs></defs>
    <g id="Artboard-3" stroke="none" stroke-width="1" fill="none" fill-rule="evenodd">
        <path d="M245.633022,589 L90.366978,589 C41.2405805,561.684169 8,509.246454 8,449.043947 C8,397.836154 32.0498038,352.246247 69.4691199,322.955948 C52.8842901,301.741242 43,275.033449 43,246.016748 C43,176.971905 98.9644063,121 168,121 C237.035594,121 293,176.971905 293,246.016748 C293,275.033449 283.11571,301.741242 266.53088,322.955948 C303.950196,352.246247 328,397.836154 328,449.043947 C328,509.246454 294.759419,561.684169 245.633022,589 Z" id="Combined-Shape" stroke="#23292D" stroke-width="15" fill="#25C4F1"></path>
        <g id="Git/Icon-Black" transform="translate(76.000000, 363.000000)" fill="#23292D" fill-rule="nonzero">
            <path d="M181.397166,84.2033991 L100.67063,3.48676316 C96.0258322,-1.16225439 88.4862708,-1.16225439 83.8356305,3.48676316 L67.0736568,20.2503596 L88.3356743,41.5123772 C93.2785822,39.8434825 98.9441261,40.9624404 102.882354,44.9014474 C106.84103,48.8649912 107.952003,54.5788947 106.24124,59.5383553 L126.734047,80.0311623 C131.691885,78.3226711 137.412117,79.4264719 141.370955,83.3923202 C146.905701,88.925443 146.905701,97.8912895 141.370955,103.425873 C135.835398,108.962241 126.869552,108.962241 121.330911,103.425873 C117.169223,99.2609386 116.139876,93.1462018 118.24774,88.0186184 L99.1359419,68.9068202 L99.1343191,119.199232 C100.483683,119.867212 101.7571,120.75875 102.881543,121.878325 C108.414666,127.410798 108.414666,136.375022 102.881543,141.916746 C97.3467971,147.449057 88.3768936,147.449057 82.8479901,141.916746 C77.3140559,136.375509 77.3140559,127.411285 82.8479901,121.878325 C84.2156107,120.513138 85.798091,119.479816 87.4866217,118.787202 L87.4866217,68.0274211 C85.7972796,67.3377281 84.2166656,66.312114 82.8470164,64.9359737 C78.6553059,60.7475088 77.6457577,54.5954474 79.7954901,49.4480658 L58.8353147,28.4846447 L3.48785855,83.8304781 C-1.16261952,88.4830658 -1.16261952,96.0226272 3.48785855,100.671969 L84.2095252,181.388768 C88.85692,186.037785 96.3938849,186.037785 101.047771,181.388768 L181.396192,101.053329 C186.045209,96.4020395 186.045209,88.8602061 181.396192,84.2102149" id="Shape"></path>
        </g>
        <circle id="Oval-2" stroke="#23292D" stroke-width="15" fill="#FFFFFF" cx="168" cy="231" r="70"></circle>
        <g id="Group" transform="translate(184.000000, 216.000000)" stroke="#23292D" stroke-linecap="round" stroke-width="15">
            <circle id="Oval-4" cx="15" cy="15" r="15"></circle>
            <path d="M30.5,15.25 L52.5,15.25" id="Line"></path>
        </g>
        <g id="Group-Copy-3" transform="translate(158.041631, 279.041631) rotate(-255.000000) translate(-158.041631, -279.041631) translate(139.041631, 264.041631)" stroke="#23292D" stroke-width="15">
            <path d="M0,30 C8.28427125,30 15,23.2842712 15,15 C15,6.71572875 8.28427125,0 0,0" id="Oval-4" stroke-linejoin="round"></path>
            <path d="M15.5,15.25 L37.5,15.25" id="Line" stroke-linecap="round"></path>
        </g>
        <g id="Group-Copy-2" transform="translate(168.500000, 65.000000) rotate(-270.000000) translate(-168.500000, -65.000000) translate(112.000000, 11.000000)" stroke="#23292D" stroke-width="15">
            <circle id="Oval-4" cx="75" cy="55" r="15"></circle>
            <path d="M43.1801948,23.1801948 C35.0367966,31.3235931 30,42.5735931 30,55 C30,67.4264069 35.0367966,78.6764069 43.1801948,86.8198052" id="Oval-4-Copy"></path>
            <path d="M21.9669914,0.966991412 C8.39466094,14.5393219 0,33.2893219 0,54 C0,74.7106781 8.39466094,93.4606781 21.9669914,107.033009" id="Oval-4-Copy-2"></path>
            <path d="M90.5,55.25 L112.5,55.25" id="Line" stroke-linecap="round"></path>
        </g>
        <g id="Group-Copy" transform="translate(141.500000, 204.500000) rotate(-90.000000) translate(-141.500000, -204.500000) translate(110.500000, 189.500000)" stroke="#23292D" stroke-width="15">
            <circle id="Oval-4" fill="#25C4F1" cx="15" cy="15" r="15"></circle>
            <polyline id="Line" stroke-linecap="round" transform="translate(46.297434, 7.864654) scale(1, -1) translate(-46.297434, -7.864654) " points="31 1 48.8886901 1 61.5948676 14.7293074"></polyline>
        </g>
    </g>
</svg>